<mxfile host="app.diagrams.net" agent="Mozilla/5.0 (Windows NT 10.0; Win64; x64) AppleWebKit/537.36 (KHTML, like Gecko) Chrome/136.0.0.0 Safari/537.36" version="26.3.0">
  <diagram name="Page-1" id="S2-03lSsmSxAi3Dc4DbP">
    <mxGraphModel dx="2101" dy="660" grid="1" gridSize="10" guides="1" tooltips="1" connect="1" arrows="1" fold="1" page="1" pageScale="1" pageWidth="850" pageHeight="1100" math="0" shadow="0">
      <root>
        <mxCell id="0" />
        <mxCell id="1" parent="0" />
        <mxCell id="9KxeKJKBETaJ2yjf6ht7-9" style="edgeStyle=orthogonalEdgeStyle;rounded=0;orthogonalLoop=1;jettySize=auto;html=1;entryX=0;entryY=0.5;entryDx=0;entryDy=0;" edge="1" parent="1" source="9KxeKJKBETaJ2yjf6ht7-1" target="9KxeKJKBETaJ2yjf6ht7-7">
          <mxGeometry relative="1" as="geometry" />
        </mxCell>
        <mxCell id="9KxeKJKBETaJ2yjf6ht7-11" style="edgeStyle=orthogonalEdgeStyle;rounded=0;orthogonalLoop=1;jettySize=auto;html=1;entryX=0;entryY=0.5;entryDx=0;entryDy=0;" edge="1" parent="1" source="9KxeKJKBETaJ2yjf6ht7-1" target="9KxeKJKBETaJ2yjf6ht7-10">
          <mxGeometry relative="1" as="geometry" />
        </mxCell>
        <mxCell id="9KxeKJKBETaJ2yjf6ht7-1" value="&lt;b&gt;1f658&lt;/b&gt;" style="ellipse;whiteSpace=wrap;html=1;fillColor=#d5e8d4;strokeColor=#82b366;" vertex="1" parent="1">
          <mxGeometry x="-60" y="80" width="100" height="50" as="geometry" />
        </mxCell>
        <mxCell id="9KxeKJKBETaJ2yjf6ht7-2" value="&lt;b&gt;Main&lt;/b&gt;" style="text;html=1;align=center;verticalAlign=middle;resizable=0;points=[];autosize=1;strokeColor=none;fillColor=none;" vertex="1" parent="1">
          <mxGeometry x="-35" y="50" width="50" height="30" as="geometry" />
        </mxCell>
        <mxCell id="9KxeKJKBETaJ2yjf6ht7-6" style="edgeStyle=orthogonalEdgeStyle;rounded=0;orthogonalLoop=1;jettySize=auto;html=1;entryX=0;entryY=0.5;entryDx=0;entryDy=0;" edge="1" parent="1" source="9KxeKJKBETaJ2yjf6ht7-3" target="9KxeKJKBETaJ2yjf6ht7-5">
          <mxGeometry relative="1" as="geometry" />
        </mxCell>
        <mxCell id="9KxeKJKBETaJ2yjf6ht7-3" value="&lt;b&gt;6c3dd&lt;/b&gt;" style="ellipse;whiteSpace=wrap;html=1;fillColor=#dae8fc;strokeColor=#6c8ebf;" vertex="1" parent="1">
          <mxGeometry x="140" y="170" width="100" height="50" as="geometry" />
        </mxCell>
        <mxCell id="9KxeKJKBETaJ2yjf6ht7-5" value="&lt;b&gt;0cf43&lt;/b&gt;" style="ellipse;whiteSpace=wrap;html=1;fillColor=#dae8fc;strokeColor=#6c8ebf;" vertex="1" parent="1">
          <mxGeometry x="290" y="170" width="100" height="50" as="geometry" />
        </mxCell>
        <mxCell id="9KxeKJKBETaJ2yjf6ht7-8" style="edgeStyle=orthogonalEdgeStyle;rounded=0;orthogonalLoop=1;jettySize=auto;html=1;entryX=0;entryY=0.5;entryDx=0;entryDy=0;" edge="1" parent="1" source="9KxeKJKBETaJ2yjf6ht7-7" target="9KxeKJKBETaJ2yjf6ht7-3">
          <mxGeometry relative="1" as="geometry" />
        </mxCell>
        <mxCell id="9KxeKJKBETaJ2yjf6ht7-7" value="&lt;b&gt;1f658&lt;/b&gt;" style="ellipse;whiteSpace=wrap;html=1;fillColor=#dae8fc;strokeColor=#6c8ebf;" vertex="1" parent="1">
          <mxGeometry x="15" y="170" width="100" height="50" as="geometry" />
        </mxCell>
        <mxCell id="9KxeKJKBETaJ2yjf6ht7-16" style="edgeStyle=orthogonalEdgeStyle;rounded=0;orthogonalLoop=1;jettySize=auto;html=1;entryX=0.5;entryY=0;entryDx=0;entryDy=0;" edge="1" parent="1" source="9KxeKJKBETaJ2yjf6ht7-10" target="9KxeKJKBETaJ2yjf6ht7-5">
          <mxGeometry relative="1" as="geometry" />
        </mxCell>
        <mxCell id="9KxeKJKBETaJ2yjf6ht7-18" style="edgeStyle=orthogonalEdgeStyle;rounded=0;orthogonalLoop=1;jettySize=auto;html=1;entryX=0;entryY=0.5;entryDx=0;entryDy=0;" edge="1" parent="1" source="9KxeKJKBETaJ2yjf6ht7-10" target="9KxeKJKBETaJ2yjf6ht7-17">
          <mxGeometry relative="1" as="geometry" />
        </mxCell>
        <mxCell id="9KxeKJKBETaJ2yjf6ht7-25" style="edgeStyle=orthogonalEdgeStyle;rounded=0;orthogonalLoop=1;jettySize=auto;html=1;" edge="1" parent="1" source="9KxeKJKBETaJ2yjf6ht7-10" target="9KxeKJKBETaJ2yjf6ht7-23">
          <mxGeometry relative="1" as="geometry" />
        </mxCell>
        <mxCell id="9KxeKJKBETaJ2yjf6ht7-10" value="&lt;b&gt;22c68&lt;/b&gt;" style="ellipse;whiteSpace=wrap;html=1;fillColor=#d5e8d4;strokeColor=#82b366;" vertex="1" parent="1">
          <mxGeometry x="290" y="80" width="100" height="50" as="geometry" />
        </mxCell>
        <mxCell id="9KxeKJKBETaJ2yjf6ht7-12" value="&lt;b&gt;c1&lt;/b&gt;" style="text;html=1;align=center;verticalAlign=middle;resizable=0;points=[];autosize=1;strokeColor=none;fillColor=none;" vertex="1" parent="1">
          <mxGeometry x="50" y="228" width="40" height="30" as="geometry" />
        </mxCell>
        <mxCell id="9KxeKJKBETaJ2yjf6ht7-13" value="&lt;b&gt;c2&lt;/b&gt;" style="text;html=1;align=center;verticalAlign=middle;resizable=0;points=[];autosize=1;strokeColor=none;fillColor=none;" vertex="1" parent="1">
          <mxGeometry x="180" y="228" width="40" height="30" as="geometry" />
        </mxCell>
        <mxCell id="9KxeKJKBETaJ2yjf6ht7-14" value="&lt;b&gt;c3&lt;/b&gt;" style="text;html=1;align=center;verticalAlign=middle;resizable=0;points=[];autosize=1;strokeColor=none;fillColor=none;" vertex="1" parent="1">
          <mxGeometry x="320" y="220" width="40" height="30" as="geometry" />
        </mxCell>
        <mxCell id="9KxeKJKBETaJ2yjf6ht7-15" value="&lt;b&gt;merge-commit&lt;/b&gt;" style="text;html=1;align=center;verticalAlign=middle;resizable=0;points=[];autosize=1;strokeColor=none;fillColor=none;" vertex="1" parent="1">
          <mxGeometry x="280" y="50" width="110" height="30" as="geometry" />
        </mxCell>
        <mxCell id="9KxeKJKBETaJ2yjf6ht7-20" style="edgeStyle=orthogonalEdgeStyle;rounded=0;orthogonalLoop=1;jettySize=auto;html=1;entryX=0;entryY=0.5;entryDx=0;entryDy=0;" edge="1" parent="1" source="9KxeKJKBETaJ2yjf6ht7-17" target="9KxeKJKBETaJ2yjf6ht7-19">
          <mxGeometry relative="1" as="geometry" />
        </mxCell>
        <mxCell id="9KxeKJKBETaJ2yjf6ht7-17" value="&lt;b&gt;22c68&lt;/b&gt;" style="ellipse;whiteSpace=wrap;html=1;fillColor=#f8cecc;strokeColor=#b85450;" vertex="1" parent="1">
          <mxGeometry x="440" y="170" width="100" height="50" as="geometry" />
        </mxCell>
        <mxCell id="9KxeKJKBETaJ2yjf6ht7-22" style="edgeStyle=orthogonalEdgeStyle;rounded=0;orthogonalLoop=1;jettySize=auto;html=1;entryX=0;entryY=0.5;entryDx=0;entryDy=0;" edge="1" parent="1" source="9KxeKJKBETaJ2yjf6ht7-19" target="9KxeKJKBETaJ2yjf6ht7-21">
          <mxGeometry relative="1" as="geometry" />
        </mxCell>
        <mxCell id="9KxeKJKBETaJ2yjf6ht7-28" style="edgeStyle=orthogonalEdgeStyle;rounded=0;orthogonalLoop=1;jettySize=auto;html=1;entryX=0.5;entryY=1;entryDx=0;entryDy=0;dashed=1;" edge="1" parent="1" source="9KxeKJKBETaJ2yjf6ht7-19" target="9KxeKJKBETaJ2yjf6ht7-23">
          <mxGeometry relative="1" as="geometry" />
        </mxCell>
        <mxCell id="9KxeKJKBETaJ2yjf6ht7-19" value="&lt;b&gt;d16c8&lt;/b&gt;" style="ellipse;whiteSpace=wrap;html=1;fillColor=#f8cecc;strokeColor=#b85450;" vertex="1" parent="1">
          <mxGeometry x="580" y="170" width="100" height="50" as="geometry" />
        </mxCell>
        <mxCell id="9KxeKJKBETaJ2yjf6ht7-29" style="edgeStyle=orthogonalEdgeStyle;rounded=0;orthogonalLoop=1;jettySize=auto;html=1;entryX=0.5;entryY=1;entryDx=0;entryDy=0;dashed=1;" edge="1" parent="1" source="9KxeKJKBETaJ2yjf6ht7-21" target="9KxeKJKBETaJ2yjf6ht7-24">
          <mxGeometry relative="1" as="geometry" />
        </mxCell>
        <mxCell id="9KxeKJKBETaJ2yjf6ht7-21" value="&lt;b&gt;bb368&lt;/b&gt;" style="ellipse;whiteSpace=wrap;html=1;fillColor=#f8cecc;strokeColor=#b85450;" vertex="1" parent="1">
          <mxGeometry x="710" y="170" width="100" height="50" as="geometry" />
        </mxCell>
        <mxCell id="9KxeKJKBETaJ2yjf6ht7-26" style="edgeStyle=orthogonalEdgeStyle;rounded=0;orthogonalLoop=1;jettySize=auto;html=1;" edge="1" parent="1" source="9KxeKJKBETaJ2yjf6ht7-23" target="9KxeKJKBETaJ2yjf6ht7-24">
          <mxGeometry relative="1" as="geometry" />
        </mxCell>
        <mxCell id="9KxeKJKBETaJ2yjf6ht7-23" value="&lt;b&gt;8c8bd&lt;/b&gt;" style="ellipse;whiteSpace=wrap;html=1;fillColor=#d5e8d4;strokeColor=#82b366;" vertex="1" parent="1">
          <mxGeometry x="580" y="80" width="100" height="50" as="geometry" />
        </mxCell>
        <mxCell id="9KxeKJKBETaJ2yjf6ht7-31" style="edgeStyle=orthogonalEdgeStyle;rounded=0;orthogonalLoop=1;jettySize=auto;html=1;entryX=0;entryY=0.5;entryDx=0;entryDy=0;" edge="1" parent="1" source="9KxeKJKBETaJ2yjf6ht7-24" target="9KxeKJKBETaJ2yjf6ht7-30">
          <mxGeometry relative="1" as="geometry" />
        </mxCell>
        <mxCell id="9KxeKJKBETaJ2yjf6ht7-33" style="edgeStyle=orthogonalEdgeStyle;rounded=0;orthogonalLoop=1;jettySize=auto;html=1;entryX=0;entryY=0.5;entryDx=0;entryDy=0;" edge="1" parent="1" source="9KxeKJKBETaJ2yjf6ht7-24" target="9KxeKJKBETaJ2yjf6ht7-32">
          <mxGeometry relative="1" as="geometry" />
        </mxCell>
        <mxCell id="9KxeKJKBETaJ2yjf6ht7-24" value="&lt;b&gt;40aa8&lt;/b&gt;" style="ellipse;whiteSpace=wrap;html=1;fillColor=#d5e8d4;strokeColor=#82b366;" vertex="1" parent="1">
          <mxGeometry x="710" y="80" width="100" height="50" as="geometry" />
        </mxCell>
        <mxCell id="9KxeKJKBETaJ2yjf6ht7-35" style="edgeStyle=orthogonalEdgeStyle;rounded=0;orthogonalLoop=1;jettySize=auto;html=1;entryX=0;entryY=0.5;entryDx=0;entryDy=0;" edge="1" parent="1" source="9KxeKJKBETaJ2yjf6ht7-30" target="9KxeKJKBETaJ2yjf6ht7-34">
          <mxGeometry relative="1" as="geometry" />
        </mxCell>
        <mxCell id="9KxeKJKBETaJ2yjf6ht7-30" value="&lt;b&gt;40aa8&lt;/b&gt;" style="ellipse;whiteSpace=wrap;html=1;fillColor=#f8cecc;strokeColor=#b85450;" vertex="1" parent="1">
          <mxGeometry x="870" y="170" width="100" height="50" as="geometry" />
        </mxCell>
        <mxCell id="9KxeKJKBETaJ2yjf6ht7-39" value="" style="edgeStyle=orthogonalEdgeStyle;rounded=0;orthogonalLoop=1;jettySize=auto;html=1;" edge="1" parent="1" source="9KxeKJKBETaJ2yjf6ht7-32" target="9KxeKJKBETaJ2yjf6ht7-38">
          <mxGeometry relative="1" as="geometry" />
        </mxCell>
        <mxCell id="9KxeKJKBETaJ2yjf6ht7-32" value="&lt;b&gt;40aa8&lt;/b&gt;" style="ellipse;whiteSpace=wrap;html=1;fillColor=#e1d5e7;strokeColor=#9673a6;" vertex="1" parent="1">
          <mxGeometry x="870" y="10" width="100" height="50" as="geometry" />
        </mxCell>
        <mxCell id="9KxeKJKBETaJ2yjf6ht7-37" style="edgeStyle=orthogonalEdgeStyle;rounded=0;orthogonalLoop=1;jettySize=auto;html=1;entryX=0;entryY=0.5;entryDx=0;entryDy=0;" edge="1" parent="1" source="9KxeKJKBETaJ2yjf6ht7-34" target="9KxeKJKBETaJ2yjf6ht7-36">
          <mxGeometry relative="1" as="geometry" />
        </mxCell>
        <mxCell id="9KxeKJKBETaJ2yjf6ht7-34" value="&lt;b&gt;92a8f&lt;/b&gt;" style="ellipse;whiteSpace=wrap;html=1;fillColor=#f8cecc;strokeColor=#b85450;" vertex="1" parent="1">
          <mxGeometry x="1000" y="170" width="100" height="50" as="geometry" />
        </mxCell>
        <mxCell id="9KxeKJKBETaJ2yjf6ht7-36" value="&lt;b&gt;3e2f1&lt;/b&gt;" style="ellipse;whiteSpace=wrap;html=1;fillColor=#f8cecc;strokeColor=#b85450;" vertex="1" parent="1">
          <mxGeometry x="1130" y="170" width="100" height="50" as="geometry" />
        </mxCell>
        <mxCell id="9KxeKJKBETaJ2yjf6ht7-38" value="&lt;b&gt;e330e&lt;/b&gt;" style="ellipse;whiteSpace=wrap;html=1;fillColor=#e1d5e7;strokeColor=#9673a6;" vertex="1" parent="1">
          <mxGeometry x="1000" y="10" width="100" height="50" as="geometry" />
        </mxCell>
      </root>
    </mxGraphModel>
  </diagram>
</mxfile>
